{
  "asset": {
    "generator": "glTF-Transform v4.2.1",
    "version": "2.0"
  },
  "accessors": [
    {
      "type": "VEC3",
      "componentType": 5126,
      "count": 1309,
      "max": [
        4.276390075683594,
        1.3914874792099,
        4.037623405456543
      ],
      "min": [
        -4.677835464477539,
        -1.1618939638137817,
        -2.911287546157837
      ],
      "bufferView": 0,
      "byteOffset": 0
    },
    {
      "type": "VEC3",
      "componentType": 5126,
      "count": 1309,
      "bufferView": 0,
      "byteOffset": 12
    },
    {
      "type": "SCALAR",
      "componentType": 5123,
      "count": 7608,
      "bufferView": 1,
      "byteOffset": 0
    },
    {
      "type": "SCALAR",
      "componentType": 5123,
      "count": 120,
      "bufferView": 1,
      "byteOffset": 15216
    }
  ],
  "bufferViews": [
    {
      "buffer": 0,
      "byteOffset": 0,
      "byteLength": 31416,
      "byteStride": 24,
      "target": 34962
    },
    {
      "buffer": 0,
      "byteOffset": 31416,
      "byteLength": 15456,
      "target": 34963
    }
  ],
  "buffers": [
    {
      "uri": "buffer.bin",
      "byteLength": 46872
    }
  ],
  "materials": [
    {
      "name": "Material.001",
      "doubleSided": true,
      "pbrMetallicRoughness": {
        "baseColorFactor": [
          0.800000011920929,
          0.7605690360069275,
          0.5268000960350037,
          1
        ],
        "roughnessFactor": 0.5,
        "metallicFactor": 0
      }
    },
    {
      "name": "Material.002",
      "doubleSided": true,
      "pbrMetallicRoughness": {
        "baseColorFactor": [
          0.800000011920929,
          0.800000011920929,
          0.800000011920929,
          1
        ],
        "roughnessFactor": 0.5,
        "metallicFactor": 0
      }
    }
  ],
  "meshes": [
    {
      "primitives": [
        {
          "attributes": {
            "POSITION": 0,
            "NORMAL": 1
          },
          "mode": 4,
          "material": 0,
          "extras": {
            "__blendVertexMap": [
              0,
              327,
              1281,
              946,
              1283,
              450,
              979,
              329,
              978,
              1,
              385,
              1004,
              324,
              325,
              1005,
              2,
              781,
              1197,
              330,
              980,
              335,
              982,
              333,
              1198,
              3,
              782,
              341,
              986,
              339,
              1200,
              4,
              388,
              334,
              981,
              331,
              1007,
              5,
              783,
              347,
              990,
              345,
              1202,
              6,
              390,
              340,
              985,
              337,
              1009,
              7,
              784,
              355,
              994,
              353,
              1204,
              8,
              391,
              1010,
              375,
              984,
              348,
              988,
              377,
              1012,
              9,
              403,
              1011,
              392,
              404,
              1021,
              402,
              1022,
              10,
              947,
              1285,
              456,
              983,
              349,
              987,
              462,
              1287,
              11,
              785,
              363,
              998,
              361,
              1206,
              12,
              393,
              356,
              992,
              379,
              1014,
              13,
              394,
              343,
              989,
              354,
              993,
              351,
              1013,
              14,
              948,
              357,
              991,
              468,
              1289,
              15,
              786,
              371,
              1002,
              369,
              1208,
              16,
              395,
              364,
              996,
              381,
              1016,
              17,
              396,
              362,
              997,
              359,
              1015,
              18,
              949,
              365,
              995,
              474,
              1291,
              19,
              397,
              372,
              1000,
              383,
              1018,
              20,
              398,
              370,
              1001,
              367,
              1017,
              21,
              950,
              373,
              999,
              480,
              1293,
              22,
              328,
              977,
              323,
              1003,
              386,
              1006,
              326,
              23,
              387,
              1008,
              332,
              24,
              389,
              338,
              25,
              344,
              26,
              374,
              376,
              27,
              352,
              28,
              378,
              29,
              360,
              30,
              380,
              31,
              368,
              32,
              382,
              33,
              411,
              412,
              1025,
              410,
              1026,
              34,
              405,
              346,
              406,
              1020,
              401,
              1019,
              35,
              400,
              36,
              399,
              37,
              419,
              420,
              1029,
              418,
              1030,
              38,
              413,
              414,
              1024,
              409,
              1023,
              39,
              408,
              40,
              407,
              41,
              427,
              428,
              1033,
              426,
              1034,
              42,
              421,
              422,
              1028,
              417,
              1027,
              43,
              416,
              44,
              415,
              45,
              435,
              436,
              1037,
              434,
              1038,
              46,
              429,
              430,
              1032,
              425,
              1031,
              47,
              424,
              48,
              423,
              49,
              443,
              444,
              1041,
              442,
              1042,
              50,
              437,
              438,
              1036,
              433,
              1035,
              51,
              52,
              431,
              53,
              439,
              1039,
              441,
              1040,
              440,
              54,
              445,
              446,
              55,
              56,
              57,
              765,
              1209,
              787,
              753,
              1048,
              489,
              1043,
              58,
              808,
              1225,
              836,
              1226,
              452,
              1047,
              490,
              1044,
              59,
              863,
              1253,
              891,
              1254,
              451,
              1046,
              491,
              1045,
              60,
              529,
              1088,
              493,
              1115,
              586,
              1082,
              61,
              973,
              1144,
              639,
              1142,
              974,
              1171,
              695,
              1172,
              62,
              951,
              920,
              494,
              1049,
              921,
              1284,
              63,
              892,
              864,
              495,
              1050,
              865,
              1255,
              64,
              837,
              809,
              496,
              1051,
              810,
              1227,
              65,
              952,
              497,
              1055,
              923,
              1286,
              66,
              893,
              498,
              1056,
              867,
              1257,
              67,
              838,
              499,
              1057,
              812,
              1229,
              68,
              953,
              500,
              1061,
              925,
              1288,
              69,
              894,
              501,
              1062,
              869,
              1259,
              70,
              839,
              502,
              1063,
              814,
              1231,
              71,
              954,
              503,
              1067,
              927,
              1290,
              72,
              895,
              504,
              1068,
              871,
              1261,
              73,
              840,
              505,
              1069,
              816,
              1233,
              74,
              788,
              1199,
              755,
              1054,
              506,
              1060,
              757,
              1201,
              75,
              841,
              1228,
              458,
              1053,
              507,
              1059,
              464,
              1230,
              76,
              896,
              1256,
              457,
              1052,
              508,
              1058,
              463,
              1258,
              77,
              955,
              509,
              1073,
              929,
              1292,
              78,
              897,
              510,
              1074,
              873,
              1263,
              79,
              842,
              511,
              1075,
              818,
              1235,
              80,
              789,
              512,
              1066,
              759,
              1203,
              81,
              843,
              513,
              1065,
              470,
              1232,
              82,
              898,
              514,
              1064,
              469,
              1260,
              83,
              956,
              515,
              1079,
              931,
              1294,
              84,
              899,
              516,
              1080,
              875,
              1265,
              85,
              844,
              517,
              1081,
              820,
              1237,
              86,
              790,
              518,
              1072,
              761,
              1205,
              87,
              845,
              519,
              1071,
              476,
              1234,
              88,
              900,
              520,
              1070,
              475,
              1262,
              89,
              791,
              521,
              1078,
              763,
              1207,
              90,
              846,
              522,
              1077,
              482,
              1236,
              91,
              901,
              523,
              1076,
              481,
              1264,
              92,
              536,
              1087,
              527,
              537,
              1092,
              535,
              1091,
              93,
              792,
              1210,
              486,
              530,
              1086,
              526,
              1212,
              94,
              793,
              528,
              767,
              1211,
              95,
              531,
              1085,
              524,
              96,
              544,
              545,
              1096,
              543,
              1095,
              97,
              794,
              538,
              1090,
              534,
              1214,
              98,
              795,
              769,
              1213,
              99,
              539,
              1089,
              532,
              100,
              552,
              553,
              1100,
              551,
              1099,
              101,
              796,
              546,
              1094,
              542,
              1216,
              102,
              797,
              771,
              1215,
              103,
              547,
              1093,
              540,
              104,
              560,
              561,
              1104,
              559,
              1103,
              105,
              798,
              554,
              1098,
              550,
              1218,
              106,
              799,
              773,
              1217,
              107,
              555,
              1097,
              548,
              108,
              568,
              569,
              1108,
              567,
              1107,
              109,
              800,
              562,
              1102,
              558,
              1220,
              110,
              801,
              775,
              1219,
              111,
              563,
              1101,
              556,
              112,
              576,
              577,
              1112,
              575,
              1111,
              113,
              802,
              570,
              1106,
              566,
              1222,
              114,
              803,
              777,
              115,
              571,
              1105,
              564,
              116,
              780,
              1224,
              804,
              1223,
              779,
              117,
              805,
              578,
              1110,
              574,
              118,
              806,
              119,
              579,
              1109,
              572,
              120,
              592,
              1114,
              583,
              1116,
              593,
              1120,
              591,
              1118,
              121,
              587,
              1113,
              492,
              122,
              847,
              1238,
              487,
              581,
              1240,
              123,
              848,
              584,
              822,
              1239,
              124,
              600,
              601,
              1124,
              599,
              1122,
              125,
              594,
              582,
              595,
              1117,
              590,
              1119,
              126,
              849,
              589,
              1242,
              127,
              850,
              824,
              1241,
              128,
              608,
              609,
              1128,
              607,
              1126,
              129,
              602,
              603,
              1121,
              598,
              1123,
              130,
              851,
              597,
              1244,
              131,
              852,
              826,
              1243,
              132,
              616,
              617,
              1132,
              615,
              1130,
              133,
              610,
              611,
              1125,
              606,
              1127,
              134,
              853,
              605,
              1246,
              135,
              854,
              828,
              1245,
              136,
              624,
              625,
              1136,
              623,
              1134,
              137,
              618,
              619,
              1129,
              614,
              1131,
              138,
              855,
              613,
              1248,
              139,
              856,
              830,
              1247,
              140,
              632,
              633,
              1140,
              631,
              1138,
              141,
              626,
              627,
              1133,
              622,
              1135,
              142,
              857,
              621,
              1250,
              143,
              858,
              832,
              1249,
              144,
              835,
              1252,
              859,
              1251,
              834,
              145,
              634,
              635,
              1137,
              630,
              1139,
              146,
              860,
              629,
              147,
              148,
              648,
              649,
              1148,
              647,
              1146,
              149,
              902,
              1266,
              488,
              1083,
              642,
              1143,
              637,
              1268,
              150,
              903,
              640,
              877,
              1267,
              151,
              656,
              657,
              1152,
              655,
              1150,
              152,
              650,
              638,
              1141,
              651,
              1145,
              646,
              1147,
              153,
              904,
              645,
              1270,
              154,
              905,
              879,
              1269,
              155,
              664,
              665,
              1156,
              663,
              1154,
              156,
              658,
              659,
              1149,
              654,
              1151,
              157,
              906,
              653,
              1272,
              158,
              907,
              881,
              1271,
              159,
              672,
              673,
              1160,
              671,
              1158,
              160,
              666,
              667,
              1153,
              662,
              1155,
              161,
              908,
              661,
              1274,
              162,
              909,
              883,
              1273,
              163,
              680,
              681,
              1164,
              679,
              1162,
              164,
              674,
              675,
              1157,
              670,
              1159,
              165,
              910,
              669,
              1276,
              166,
              911,
              885,
              1275,
              167,
              688,
              689,
              1168,
              687,
              1166,
              168,
              682,
              683,
              1161,
              678,
              1163,
              169,
              912,
              677,
              1278,
              170,
              913,
              887,
              171,
              890,
              1280,
              914,
              1279,
              889,
              172,
              690,
              691,
              1165,
              686,
              1167,
              173,
              915,
              685,
              174,
              916,
              175,
              704,
              705,
              1175,
              703,
              1176,
              176,
              957,
              1282,
              919,
              1084,
              696,
              933,
              1296,
              177,
              958,
              699,
              1169,
              693,
              1295,
              178,
              698,
              1170,
              692,
              179,
              712,
              713,
              1179,
              711,
              1180,
              180,
              959,
              935,
              1298,
              181,
              960,
              707,
              1173,
              701,
              1297,
              182,
              706,
              1174,
              700,
              183,
              720,
              721,
              1183,
              719,
              1184,
              184,
              961,
              937,
              1300,
              185,
              962,
              715,
              1177,
              709,
              1299,
              186,
              714,
              1178,
              708,
              187,
              728,
              729,
              1187,
              727,
              1188,
              188,
              963,
              939,
              1302,
              189,
              964,
              723,
              1181,
              717,
              1301,
              190,
              722,
              1182,
              716,
              191,
              736,
              737,
              1191,
              735,
              1192,
              192,
              965,
              941,
              1304,
              193,
              966,
              731,
              1185,
              725,
              1303,
              194,
              730,
              1186,
              724,
              195,
              744,
              745,
              1195,
              743,
              1196,
              196,
              967,
              943,
              1306,
              197,
              968,
              739,
              1189,
              733,
              198,
              738,
              1190,
              732,
              199,
              742,
              1308,
              969,
              1307,
              741,
              1193,
              740,
              1194,
              200,
              970,
              945,
              201,
              747,
              971,
              202,
              746,
              203,
              972,
              922,
              748,
              204,
              862,
              821,
              751,
              205,
              807,
              766,
              750,
              206,
              917,
              876,
              207,
              752,
              208,
              749,
              209,
              754,
              210,
              756,
              211,
              758,
              212,
              760,
              213,
              762,
              214,
              764,
              215,
              447,
              216,
              336,
              342,
              217,
              350,
              218,
              358,
              219,
              366,
              220,
              768,
              221,
              525,
              222,
              770,
              223,
              533,
              224,
              772,
              225,
              541,
              226,
              774,
              227,
              549,
              228,
              776,
              229,
              557,
              230,
              778,
              231,
              565,
              232,
              573,
              233,
              234,
              235,
              236,
              448,
              237,
              455,
              238,
              461,
              239,
              467,
              240,
              473,
              241,
              811,
              813,
              242,
              479,
              243,
              815,
              244,
              485,
              245,
              817,
              246,
              819,
              247,
              585,
              823,
              248,
              580,
              249,
              825,
              250,
              588,
              251,
              827,
              252,
              596,
              253,
              829,
              254,
              604,
              255,
              831,
              256,
              612,
              257,
              833,
              258,
              620,
              259,
              628,
              260,
              261,
              262,
              263,
              449,
              264,
              454,
              265,
              460,
              266,
              466,
              267,
              472,
              268,
              866,
              868,
              269,
              478,
              270,
              870,
              271,
              484,
              272,
              872,
              273,
              874,
              274,
              641,
              878,
              275,
              643,
              636,
              276,
              880,
              277,
              644,
              278,
              882,
              279,
              652,
              280,
              884,
              281,
              660,
              282,
              886,
              283,
              668,
              284,
              888,
              285,
              676,
              286,
              684,
              287,
              288,
              289,
              290,
              918,
              291,
              924,
              292,
              926,
              293,
              928,
              294,
              930,
              295,
              453,
              296,
              459,
              297,
              465,
              298,
              471,
              299,
              477,
              300,
              483,
              301,
              384,
              694,
              302,
              697,
              932,
              303,
              702,
              304,
              934,
              305,
              710,
              306,
              936,
              307,
              718,
              308,
              938,
              309,
              726,
              310,
              940,
              311,
              734,
              312,
              942,
              313,
              944,
              314,
              315,
              316,
              317,
              318,
              319,
              320,
              975,
              321,
              976,
              322,
              432,
              1221,
              861,
              1277,
              1305
            ]
          },
          "indices": 2
        },
        {
          "attributes": {
            "POSITION": 0,
            "NORMAL": 1
          },
          "mode": 4,
          "material": 1,
          "extras": {
            "__blendVertexMap": [
              0,
              327,
              1281,
              946,
              1283,
              450,
              979,
              329,
              978,
              1,
              385,
              1004,
              324,
              325,
              1005,
              2,
              781,
              1197,
              330,
              980,
              335,
              982,
              333,
              1198,
              3,
              782,
              341,
              986,
              339,
              1200,
              4,
              388,
              334,
              981,
              331,
              1007,
              5,
              783,
              347,
              990,
              345,
              1202,
              6,
              390,
              340,
              985,
              337,
              1009,
              7,
              784,
              355,
              994,
              353,
              1204,
              8,
              391,
              1010,
              375,
              984,
              348,
              988,
              377,
              1012,
              9,
              403,
              1011,
              392,
              404,
              1021,
              402,
              1022,
              10,
              947,
              1285,
              456,
              983,
              349,
              987,
              462,
              1287,
              11,
              785,
              363,
              998,
              361,
              1206,
              12,
              393,
              356,
              992,
              379,
              1014,
              13,
              394,
              343,
              989,
              354,
              993,
              351,
              1013,
              14,
              948,
              357,
              991,
              468,
              1289,
              15,
              786,
              371,
              1002,
              369,
              1208,
              16,
              395,
              364,
              996,
              381,
              1016,
              17,
              396,
              362,
              997,
              359,
              1015,
              18,
              949,
              365,
              995,
              474,
              1291,
              19,
              397,
              372,
              1000,
              383,
              1018,
              20,
              398,
              370,
              1001,
              367,
              1017,
              21,
              950,
              373,
              999,
              480,
              1293,
              22,
              328,
              977,
              323,
              1003,
              386,
              1006,
              326,
              23,
              387,
              1008,
              332,
              24,
              389,
              338,
              25,
              344,
              26,
              374,
              376,
              27,
              352,
              28,
              378,
              29,
              360,
              30,
              380,
              31,
              368,
              32,
              382,
              33,
              411,
              412,
              1025,
              410,
              1026,
              34,
              405,
              346,
              406,
              1020,
              401,
              1019,
              35,
              400,
              36,
              399,
              37,
              419,
              420,
              1029,
              418,
              1030,
              38,
              413,
              414,
              1024,
              409,
              1023,
              39,
              408,
              40,
              407,
              41,
              427,
              428,
              1033,
              426,
              1034,
              42,
              421,
              422,
              1028,
              417,
              1027,
              43,
              416,
              44,
              415,
              45,
              435,
              436,
              1037,
              434,
              1038,
              46,
              429,
              430,
              1032,
              425,
              1031,
              47,
              424,
              48,
              423,
              49,
              443,
              444,
              1041,
              442,
              1042,
              50,
              437,
              438,
              1036,
              433,
              1035,
              51,
              52,
              431,
              53,
              439,
              1039,
              441,
              1040,
              440,
              54,
              445,
              446,
              55,
              56,
              57,
              765,
              1209,
              787,
              753,
              1048,
              489,
              1043,
              58,
              808,
              1225,
              836,
              1226,
              452,
              1047,
              490,
              1044,
              59,
              863,
              1253,
              891,
              1254,
              451,
              1046,
              491,
              1045,
              60,
              529,
              1088,
              493,
              1115,
              586,
              1082,
              61,
              973,
              1144,
              639,
              1142,
              974,
              1171,
              695,
              1172,
              62,
              951,
              920,
              494,
              1049,
              921,
              1284,
              63,
              892,
              864,
              495,
              1050,
              865,
              1255,
              64,
              837,
              809,
              496,
              1051,
              810,
              1227,
              65,
              952,
              497,
              1055,
              923,
              1286,
              66,
              893,
              498,
              1056,
              867,
              1257,
              67,
              838,
              499,
              1057,
              812,
              1229,
              68,
              953,
              500,
              1061,
              925,
              1288,
              69,
              894,
              501,
              1062,
              869,
              1259,
              70,
              839,
              502,
              1063,
              814,
              1231,
              71,
              954,
              503,
              1067,
              927,
              1290,
              72,
              895,
              504,
              1068,
              871,
              1261,
              73,
              840,
              505,
              1069,
              816,
              1233,
              74,
              788,
              1199,
              755,
              1054,
              506,
              1060,
              757,
              1201,
              75,
              841,
              1228,
              458,
              1053,
              507,
              1059,
              464,
              1230,
              76,
              896,
              1256,
              457,
              1052,
              508,
              1058,
              463,
              1258,
              77,
              955,
              509,
              1073,
              929,
              1292,
              78,
              897,
              510,
              1074,
              873,
              1263,
              79,
              842,
              511,
              1075,
              818,
              1235,
              80,
              789,
              512,
              1066,
              759,
              1203,
              81,
              843,
              513,
              1065,
              470,
              1232,
              82,
              898,
              514,
              1064,
              469,
              1260,
              83,
              956,
              515,
              1079,
              931,
              1294,
              84,
              899,
              516,
              1080,
              875,
              1265,
              85,
              844,
              517,
              1081,
              820,
              1237,
              86,
              790,
              518,
              1072,
              761,
              1205,
              87,
              845,
              519,
              1071,
              476,
              1234,
              88,
              900,
              520,
              1070,
              475,
              1262,
              89,
              791,
              521,
              1078,
              763,
              1207,
              90,
              846,
              522,
              1077,
              482,
              1236,
              91,
              901,
              523,
              1076,
              481,
              1264,
              92,
              536,
              1087,
              527,
              537,
              1092,
              535,
              1091,
              93,
              792,
              1210,
              486,
              530,
              1086,
              526,
              1212,
              94,
              793,
              528,
              767,
              1211,
              95,
              531,
              1085,
              524,
              96,
              544,
              545,
              1096,
              543,
              1095,
              97,
              794,
              538,
              1090,
              534,
              1214,
              98,
              795,
              769,
              1213,
              99,
              539,
              1089,
              532,
              100,
              552,
              553,
              1100,
              551,
              1099,
              101,
              796,
              546,
              1094,
              542,
              1216,
              102,
              797,
              771,
              1215,
              103,
              547,
              1093,
              540,
              104,
              560,
              561,
              1104,
              559,
              1103,
              105,
              798,
              554,
              1098,
              550,
              1218,
              106,
              799,
              773,
              1217,
              107,
              555,
              1097,
              548,
              108,
              568,
              569,
              1108,
              567,
              1107,
              109,
              800,
              562,
              1102,
              558,
              1220,
              110,
              801,
              775,
              1219,
              111,
              563,
              1101,
              556,
              112,
              576,
              577,
              1112,
              575,
              1111,
              113,
              802,
              570,
              1106,
              566,
              1222,
              114,
              803,
              777,
              115,
              571,
              1105,
              564,
              116,
              780,
              1224,
              804,
              1223,
              779,
              117,
              805,
              578,
              1110,
              574,
              118,
              806,
              119,
              579,
              1109,
              572,
              120,
              592,
              1114,
              583,
              1116,
              593,
              1120,
              591,
              1118,
              121,
              587,
              1113,
              492,
              122,
              847,
              1238,
              487,
              581,
              1240,
              123,
              848,
              584,
              822,
              1239,
              124,
              600,
              601,
              1124,
              599,
              1122,
              125,
              594,
              582,
              595,
              1117,
              590,
              1119,
              126,
              849,
              589,
              1242,
              127,
              850,
              824,
              1241,
              128,
              608,
              609,
              1128,
              607,
              1126,
              129,
              602,
              603,
              1121,
              598,
              1123,
              130,
              851,
              597,
              1244,
              131,
              852,
              826,
              1243,
              132,
              616,
              617,
              1132,
              615,
              1130,
              133,
              610,
              611,
              1125,
              606,
              1127,
              134,
              853,
              605,
              1246,
              135,
              854,
              828,
              1245,
              136,
              624,
              625,
              1136,
              623,
              1134,
              137,
              618,
              619,
              1129,
              614,
              1131,
              138,
              855,
              613,
              1248,
              139,
              856,
              830,
              1247,
              140,
              632,
              633,
              1140,
              631,
              1138,
              141,
              626,
              627,
              1133,
              622,
              1135,
              142,
              857,
              621,
              1250,
              143,
              858,
              832,
              1249,
              144,
              835,
              1252,
              859,
              1251,
              834,
              145,
              634,
              635,
              1137,
              630,
              1139,
              146,
              860,
              629,
              147,
              148,
              648,
              649,
              1148,
              647,
              1146,
              149,
              902,
              1266,
              488,
              1083,
              642,
              1143,
              637,
              1268,
              150,
              903,
              640,
              877,
              1267,
              151,
              656,
              657,
              1152,
              655,
              1150,
              152,
              650,
              638,
              1141,
              651,
              1145,
              646,
              1147,
              153,
              904,
              645,
              1270,
              154,
              905,
              879,
              1269,
              155,
              664,
              665,
              1156,
              663,
              1154,
              156,
              658,
              659,
              1149,
              654,
              1151,
              157,
              906,
              653,
              1272,
              158,
              907,
              881,
              1271,
              159,
              672,
              673,
              1160,
              671,
              1158,
              160,
              666,
              667,
              1153,
              662,
              1155,
              161,
              908,
              661,
              1274,
              162,
              909,
              883,
              1273,
              163,
              680,
              681,
              1164,
              679,
              1162,
              164,
              674,
              675,
              1157,
              670,
              1159,
              165,
              910,
              669,
              1276,
              166,
              911,
              885,
              1275,
              167,
              688,
              689,
              1168,
              687,
              1166,
              168,
              682,
              683,
              1161,
              678,
              1163,
              169,
              912,
              677,
              1278,
              170,
              913,
              887,
              171,
              890,
              1280,
              914,
              1279,
              889,
              172,
              690,
              691,
              1165,
              686,
              1167,
              173,
              915,
              685,
              174,
              916,
              175,
              704,
              705,
              1175,
              703,
              1176,
              176,
              957,
              1282,
              919,
              1084,
              696,
              933,
              1296,
              177,
              958,
              699,
              1169,
              693,
              1295,
              178,
              698,
              1170,
              692,
              179,
              712,
              713,
              1179,
              711,
              1180,
              180,
              959,
              935,
              1298,
              181,
              960,
              707,
              1173,
              701,
              1297,
              182,
              706,
              1174,
              700,
              183,
              720,
              721,
              1183,
              719,
              1184,
              184,
              961,
              937,
              1300,
              185,
              962,
              715,
              1177,
              709,
              1299,
              186,
              714,
              1178,
              708,
              187,
              728,
              729,
              1187,
              727,
              1188,
              188,
              963,
              939,
              1302,
              189,
              964,
              723,
              1181,
              717,
              1301,
              190,
              722,
              1182,
              716,
              191,
              736,
              737,
              1191,
              735,
              1192,
              192,
              965,
              941,
              1304,
              193,
              966,
              731,
              1185,
              725,
              1303,
              194,
              730,
              1186,
              724,
              195,
              744,
              745,
              1195,
              743,
              1196,
              196,
              967,
              943,
              1306,
              197,
              968,
              739,
              1189,
              733,
              198,
              738,
              1190,
              732,
              199,
              742,
              1308,
              969,
              1307,
              741,
              1193,
              740,
              1194,
              200,
              970,
              945,
              201,
              747,
              971,
              202,
              746,
              203,
              972,
              922,
              748,
              204,
              862,
              821,
              751,
              205,
              807,
              766,
              750,
              206,
              917,
              876,
              207,
              752,
              208,
              749,
              209,
              754,
              210,
              756,
              211,
              758,
              212,
              760,
              213,
              762,
              214,
              764,
              215,
              447,
              216,
              336,
              342,
              217,
              350,
              218,
              358,
              219,
              366,
              220,
              768,
              221,
              525,
              222,
              770,
              223,
              533,
              224,
              772,
              225,
              541,
              226,
              774,
              227,
              549,
              228,
              776,
              229,
              557,
              230,
              778,
              231,
              565,
              232,
              573,
              233,
              234,
              235,
              236,
              448,
              237,
              455,
              238,
              461,
              239,
              467,
              240,
              473,
              241,
              811,
              813,
              242,
              479,
              243,
              815,
              244,
              485,
              245,
              817,
              246,
              819,
              247,
              585,
              823,
              248,
              580,
              249,
              825,
              250,
              588,
              251,
              827,
              252,
              596,
              253,
              829,
              254,
              604,
              255,
              831,
              256,
              612,
              257,
              833,
              258,
              620,
              259,
              628,
              260,
              261,
              262,
              263,
              449,
              264,
              454,
              265,
              460,
              266,
              466,
              267,
              472,
              268,
              866,
              868,
              269,
              478,
              270,
              870,
              271,
              484,
              272,
              872,
              273,
              874,
              274,
              641,
              878,
              275,
              643,
              636,
              276,
              880,
              277,
              644,
              278,
              882,
              279,
              652,
              280,
              884,
              281,
              660,
              282,
              886,
              283,
              668,
              284,
              888,
              285,
              676,
              286,
              684,
              287,
              288,
              289,
              290,
              918,
              291,
              924,
              292,
              926,
              293,
              928,
              294,
              930,
              295,
              453,
              296,
              459,
              297,
              465,
              298,
              471,
              299,
              477,
              300,
              483,
              301,
              384,
              694,
              302,
              697,
              932,
              303,
              702,
              304,
              934,
              305,
              710,
              306,
              936,
              307,
              718,
              308,
              938,
              309,
              726,
              310,
              940,
              311,
              734,
              312,
              942,
              313,
              944,
              314,
              315,
              316,
              317,
              318,
              319,
              320,
              975,
              321,
              976,
              322,
              432,
              1221,
              861,
              1277,
              1305
            ]
          },
          "indices": 3
        }
      ]
    }
  ],
  "nodes": [
    {
      "name": "Cube",
      "mesh": 0
    },
    {
      "translation": [
        5.607888221740723,
        3.593122959136963,
        5.6848368644714355
      ],
      "rotation": [
        -0.7071067811865475,
        0,
        0,
        0.7071067811865476
      ],
      "extensions": {
        "KHR_lights_punctual": {
          "light": 0
        }
      }
    },
    {
      "translation": [
        -10.70084285736084,
        2.2761178016662598,
        0.9325141906738281
      ],
      "rotation": [
        -0.7071067811865475,
        0,
        0,
        0.7071067811865476
      ],
      "extensions": {
        "KHR_lights_punctual": {
          "light": 1
        }
      }
    }
  ],
  "scenes": [
    {
      "name": "Scene",
      "nodes": [
        0,
        1,
        2
      ]
    }
  ],
  "scene": 0,
  "extensionsUsed": [
    "KHR_lights_punctual"
  ],
  "extensions": {
    "KHR_lights_punctual": {
      "lights": [
        {
          "type": "point"
        },
        {
          "type": "point"
        }
      ]
    }
  }
}